<svg width="15" height="16" viewBox="0 0 15 16" fill="none" xmlns="http://www.w3.org/2000/svg">
<path d="M3.4998 0.171875L2.73105 1.4875C2.6123 1.69062 2.5498 1.925 2.5498 2.1625V2.25C2.5498 2.94062 3.10918 3.5 3.7998 3.5C4.49043 3.5 5.0498 2.94062 5.0498 2.25V2.1625C5.0498 1.925 4.9873 1.69375 4.86855 1.4875L4.0998 0.171875C4.0373 0.065625 3.9248 0 3.7998 0C3.6748 0 3.5623 0.065625 3.4998 0.171875ZM7.4998 0.171875L6.73105 1.4875C6.6123 1.69062 6.5498 1.925 6.5498 2.1625V2.25C6.5498 2.94062 7.10918 3.5 7.7998 3.5C8.49043 3.5 9.0498 2.94062 9.0498 2.25V2.1625C9.0498 1.925 8.9873 1.69375 8.86855 1.4875L8.0998 0.171875C8.0373 0.065625 7.9248 0 7.7998 0C7.6748 0 7.5623 0.065625 7.4998 0.171875ZM10.7311 1.4875C10.6123 1.69062 10.5498 1.925 10.5498 2.1625V2.25C10.5498 2.94062 11.1092 3.5 11.7998 3.5C12.4904 3.5 13.0498 2.94062 13.0498 2.25V2.1625C13.0498 1.925 12.9873 1.69375 12.8686 1.4875L12.0998 0.171875C12.0373 0.065625 11.9248 0 11.7998 0C11.6748 0 11.5623 0.065625 11.4998 0.171875L10.7311 1.4875ZM4.7998 5.5C4.7998 4.94688 4.35293 4.5 3.7998 4.5C3.24668 4.5 2.7998 4.94688 2.7998 5.5V7C1.69668 7 0.799805 7.89687 0.799805 9V11.2188C1.05918 11.3813 1.36543 11.5 1.6998 11.5C2.12168 11.5 2.5498 11.3094 2.8998 11.0813C3.06855 10.9719 3.20918 10.8594 3.30605 10.7781C3.35293 10.7375 3.39043 10.7031 3.41543 10.6812C3.42793 10.6687 3.4373 10.6625 3.44043 10.6562L3.44355 10.6531C3.54043 10.5531 3.6748 10.5 3.81543 10.5031C3.95605 10.5063 4.08418 10.5688 4.17793 10.6719L4.18105 10.675C4.18418 10.6781 4.19355 10.6875 4.20293 10.6969C4.2248 10.7188 4.25605 10.75 4.2998 10.7906C4.3873 10.8719 4.5123 10.9812 4.66855 11.0875C4.9873 11.3094 5.3873 11.4969 5.80293 11.4969C6.21855 11.4969 6.61855 11.3094 6.9373 11.0875C7.09355 10.9781 7.21855 10.8719 7.30605 10.7906C7.3498 10.75 7.38105 10.7188 7.40293 10.6969C7.4123 10.6875 7.42168 10.6781 7.4248 10.675L7.42793 10.6719C7.52168 10.5625 7.65918 10.5031 7.80293 10.5031C7.94668 10.5031 8.08418 10.5656 8.17793 10.6719L8.18105 10.675C8.18418 10.6781 8.19355 10.6875 8.20293 10.6969C8.2248 10.7188 8.25605 10.75 8.2998 10.7906C8.3873 10.8719 8.5123 10.9812 8.66855 11.0875C8.9873 11.3094 9.3873 11.4969 9.80293 11.4969C10.2186 11.4969 10.6186 11.3094 10.9373 11.0875C11.0936 10.9781 11.2186 10.8719 11.3061 10.7906C11.3498 10.75 11.3811 10.7188 11.4029 10.6969C11.4123 10.6875 11.4217 10.6781 11.4248 10.675L11.4279 10.6719C11.5186 10.5656 11.6498 10.5063 11.7904 10.5031C11.9311 10.5 12.0623 10.5531 12.1623 10.6531L12.1654 10.6562C12.1717 10.6625 12.1779 10.6687 12.1904 10.6812C12.2154 10.7031 12.2498 10.7375 12.2998 10.7781C12.3967 10.8594 12.5342 10.9719 12.7061 11.0813C13.0561 11.3094 13.4842 11.5 13.9061 11.5C14.2404 11.5 14.5467 11.3781 14.8061 11.2188V9C14.8061 7.89687 13.9092 7 12.8061 7V5.5C12.8061 4.94688 12.3592 4.5 11.8061 4.5C11.2529 4.5 10.8061 4.94688 10.8061 5.5V7H8.7998V5.5C8.7998 4.94688 8.35293 4.5 7.7998 4.5C7.24668 4.5 6.7998 4.94688 6.7998 5.5V7H4.7998V5.5ZM14.7998 12.3313C14.5342 12.4344 14.2311 12.5 13.8998 12.5C13.1967 12.5 12.5748 12.1906 12.1561 11.9187C12.0279 11.8344 11.9123 11.75 11.8154 11.675C11.7279 11.75 11.6248 11.8313 11.5092 11.9094C11.1061 12.1875 10.5061 12.5 9.7998 12.5C9.09355 12.5 8.49355 12.1875 8.09355 11.9094C7.98418 11.8344 7.88418 11.7562 7.7998 11.6844C7.71543 11.7562 7.61543 11.8313 7.50605 11.9094C7.10605 12.1875 6.50605 12.5 5.7998 12.5C5.09355 12.5 4.49355 12.1875 4.09355 11.9094C3.97793 11.8281 3.8748 11.7469 3.7873 11.675C3.69043 11.75 3.5748 11.8344 3.44668 11.9187C3.0248 12.1906 2.40293 12.5 1.6998 12.5C1.36855 12.5 1.06543 12.4313 0.799805 12.3313V15C0.799805 15.5531 1.24668 16 1.7998 16H13.7998C14.3529 16 14.7998 15.5531 14.7998 15V12.3313Z" fill="#F5FFFF"/>
</svg>
