<svg width="16" height="16" viewBox="0 0 16 16" fill="none" xmlns="http://www.w3.org/2000/svg">
<path d="M5.58477 12.5687C5.58477 12.6312 5.51289 12.6812 5.42227 12.6812C5.31914 12.6905 5.24727 12.6405 5.24727 12.5687C5.24727 12.5062 5.31914 12.4562 5.40977 12.4562C5.50352 12.4468 5.58477 12.4968 5.58477 12.5687ZM4.61289 12.428C4.59102 12.4905 4.65352 12.5624 4.74727 12.5812C4.82852 12.6124 4.92227 12.5812 4.94102 12.5187C4.95977 12.4562 4.90039 12.3843 4.80664 12.3562C4.72539 12.3343 4.63477 12.3655 4.61289 12.428ZM5.99414 12.3749C5.90352 12.3968 5.84102 12.4562 5.85039 12.528C5.85977 12.5905 5.94102 12.6312 6.03477 12.6093C6.12539 12.5874 6.18789 12.528 6.17852 12.4655C6.16914 12.4062 6.08477 12.3655 5.99414 12.3749ZM8.05039 0.399902C3.71602 0.399902 0.400391 3.69053 0.400391 8.0249C0.400391 11.4905 2.58164 14.4562 5.69727 15.4999C6.09727 15.5718 6.23789 15.3249 6.23789 15.1218C6.23789 14.928 6.22852 13.8593 6.22852 13.203C6.22852 13.203 4.04102 13.6718 3.58164 12.2718C3.58164 12.2718 3.22539 11.3624 2.71289 11.128C2.71289 11.128 1.99727 10.6374 2.76289 10.6468C2.76289 10.6468 3.54102 10.7093 3.96914 11.453C4.65352 12.6593 5.80039 12.3124 6.24727 12.1062C6.31914 11.6062 6.52227 11.2593 6.74727 11.053C5.00039 10.8593 3.23789 10.6062 3.23789 7.5999C3.23789 6.74053 3.47539 6.30928 3.97539 5.75928C3.89414 5.55615 3.62852 4.71865 4.05664 3.6374C4.70977 3.43428 6.21289 4.48115 6.21289 4.48115C6.83789 4.30615 7.50977 4.21553 8.17539 4.21553C8.84102 4.21553 9.51289 4.30615 10.1379 4.48115C10.1379 4.48115 11.641 3.43115 12.2941 3.6374C12.7223 4.72178 12.4566 5.55615 12.3754 5.75928C12.8754 6.3124 13.1816 6.74365 13.1816 7.5999C13.1816 10.6155 11.341 10.8562 9.59414 11.053C9.88164 11.2999 10.1254 11.7687 10.1254 12.503C10.1254 13.5562 10.116 14.8593 10.116 15.1155C10.116 15.3187 10.2598 15.5655 10.6566 15.4937C13.7816 14.4562 15.9004 11.4905 15.9004 8.0249C15.9004 3.69053 12.3848 0.399902 8.05039 0.399902ZM3.43789 11.178C3.39727 11.2093 3.40664 11.2812 3.45977 11.3405C3.50977 11.3905 3.58164 11.4124 3.62227 11.3718C3.66289 11.3405 3.65352 11.2687 3.60039 11.2093C3.55039 11.1593 3.47852 11.1374 3.43789 11.178ZM3.10039 10.9249C3.07852 10.9655 3.10977 11.0155 3.17227 11.0468C3.22227 11.078 3.28477 11.0687 3.30664 11.0249C3.32852 10.9843 3.29727 10.9343 3.23477 10.903C3.17227 10.8843 3.12227 10.8937 3.10039 10.9249ZM4.11289 12.0374C4.06289 12.078 4.08164 12.1718 4.15352 12.2312C4.22539 12.303 4.31602 12.3124 4.35664 12.2624C4.39727 12.2218 4.37852 12.128 4.31602 12.0687C4.24727 11.9968 4.15352 11.9874 4.11289 12.0374ZM3.75664 11.578C3.70664 11.6093 3.70664 11.6905 3.75664 11.7624C3.80664 11.8343 3.89102 11.8655 3.93164 11.8343C3.98164 11.7937 3.98164 11.7124 3.93164 11.6405C3.88789 11.5687 3.80664 11.5374 3.75664 11.578Z" fill="#F5FFFF"/>
</svg>
