<svg width="16" height="14" viewBox="0 0 16 14" fill="none" xmlns="http://www.w3.org/2000/svg">
<path d="M1.79192 8.1497L7.07447 13.0814C7.29372 13.2861 7.58314 13.4001 7.88425 13.4001C8.18536 13.4001 8.47477 13.2861 8.69402 13.0814L13.9766 8.1497C14.8653 7.32239 15.3681 6.1618 15.3681 4.9486V4.77905C15.3681 2.7356 13.8918 0.993266 11.8776 0.657077C10.5445 0.4349 9.18808 0.870484 8.23505 1.82351L7.88425 2.17431L7.53344 1.82351C6.58042 0.870484 5.22397 0.4349 3.89091 0.657077C1.8767 0.993266 0.400391 2.7356 0.400391 4.77905V4.9486C0.400391 6.1618 0.903212 7.32239 1.79192 8.1497Z" fill="#F5FFFF"/>
</svg>
