<svg width="14" height="14" viewBox="0 0 14 14" fill="none" xmlns="http://www.w3.org/2000/svg">
<path d="M8.99961 9.4001C11.4296 9.4001 13.3996 7.4301 13.3996 5.0001C13.3996 2.5701 11.4296 0.600098 8.99961 0.600098C6.56961 0.600098 4.59961 2.5701 4.59961 5.0001C4.59961 5.4676 4.67211 5.9201 4.80711 6.3426L0.774609 10.3751C0.662109 10.4876 0.599609 10.6401 0.599609 10.8001V12.8001C0.599609 13.1326 0.867109 13.4001 1.19961 13.4001H3.19961C3.53211 13.4001 3.79961 13.1326 3.79961 12.8001V11.8001H4.79961C5.13211 11.8001 5.39961 11.5326 5.39961 11.2001V10.2001H6.39961C6.55961 10.2001 6.71211 10.1376 6.82461 10.0251L7.65711 9.1926C8.07961 9.3276 8.53211 9.4001 8.99961 9.4001ZM9.99961 3.0001C10.2648 3.0001 10.5192 3.10545 10.7067 3.29299C10.8943 3.48053 10.9996 3.73488 10.9996 4.0001C10.9996 4.26531 10.8943 4.51967 10.7067 4.7072C10.5192 4.89474 10.2648 5.0001 9.99961 5.0001C9.73439 5.0001 9.48004 4.89474 9.2925 4.7072C9.10497 4.51967 8.99961 4.26531 8.99961 4.0001C8.99961 3.73488 9.10497 3.48053 9.2925 3.29299C9.48004 3.10545 9.73439 3.0001 9.99961 3.0001Z" fill="#F5FFFF"/>
</svg>
