<svg width="16" height="16" viewBox="0 0 16 16" fill="none" xmlns="http://www.w3.org/2000/svg">
<path d="M7.60661 0.0811523L0.606612 3.08115C0.169112 3.26865 -0.0746379 3.7374 0.0222371 4.1999C0.119112 4.6624 0.525362 4.9999 1.00036 4.9999V5.2499C1.00036 5.66553 1.33474 5.9999 1.75036 5.9999H14.2504C14.666 5.9999 15.0004 5.66553 15.0004 5.2499V4.9999C15.4754 4.9999 15.8847 4.66553 15.9785 4.1999C16.0722 3.73428 15.8285 3.26553 15.3941 3.08115L8.39411 0.0811523C8.14411 -0.0250977 7.85661 -0.0250977 7.60661 0.0811523ZM4.00036 6.9999H2.00036V13.1343C1.98161 13.1437 1.96286 13.1562 1.94411 13.1687L0.444112 14.1687C0.0784871 14.4124 -0.0871379 14.8687 0.0409871 15.2905C0.169112 15.7124 0.559737 15.9999 1.00036 15.9999H15.0004C15.441 15.9999 15.8285 15.7124 15.9566 15.2905C16.0847 14.8687 15.9222 14.4124 15.5535 14.1687L14.0535 13.1687C14.0347 13.1562 14.016 13.1468 13.9972 13.1343V6.9999H12.0004V12.9999H10.7504V6.9999H8.75036V12.9999H7.25036V6.9999H5.25036V12.9999H4.00036V6.9999ZM8.00036 1.9999C8.26558 1.9999 8.51993 2.10526 8.70747 2.2928C8.89501 2.48033 9.00036 2.73469 9.00036 2.9999C9.00036 3.26512 8.89501 3.51947 8.70747 3.70701C8.51993 3.89455 8.26558 3.9999 8.00036 3.9999C7.73515 3.9999 7.48079 3.89455 7.29326 3.70701C7.10572 3.51947 7.00036 3.26512 7.00036 2.9999C7.00036 2.73469 7.10572 2.48033 7.29326 2.2928C7.48079 2.10526 7.73515 1.9999 8.00036 1.9999Z" fill="#F5FFFF"/>
</svg>
