<svg width="16" height="16" viewBox="0 0 16 16" fill="none" xmlns="http://www.w3.org/2000/svg">
<path d="M8.80302 1.2998C8.6558 0.994249 8.34469 0.799805 8.00302 0.799805C7.66136 0.799805 7.35302 0.994249 7.20302 1.2998L5.41691 4.97481L1.42802 5.56369C1.09469 5.61369 0.816911 5.84703 0.714133 6.16647C0.611355 6.48592 0.694689 6.83869 0.933577 7.07481L3.82802 9.93869L3.14469 13.9859C3.08913 14.3193 3.22802 14.6581 3.50302 14.8554C3.77802 15.0526 4.14191 15.0776 4.44191 14.9193L8.0058 13.0165L11.5697 14.9193C11.8697 15.0776 12.2336 15.0554 12.5086 14.8554C12.7836 14.6554 12.9225 14.3193 12.8669 13.9859L12.1808 9.93869L15.0752 7.07481C15.3141 6.83869 15.4002 6.48592 15.2947 6.16647C15.1891 5.84703 14.9141 5.61369 14.5808 5.56369L10.5891 4.97481L8.80302 1.2998Z" fill="#000000"/>
</svg>
